<svg width="1440" height="1280" viewBox="0 0 1440 1280" fill="none" xmlns="http://www.w3.org/2000/svg">
<g clip-path="url(#clip0_215_143)">
<path fill-rule="evenodd" clip-rule="evenodd" d="M-142.899 343.84C-114.817 346.79 -103.187 401.287 -74.9961 401.711C-27.1789 402.431 15.3186 325.05 59.3883 346.884C94.4452 364.253 66.4739 435.674 78.8975 477.958C89.6806 514.657 116.341 541.798 127.406 578.381C139.752 619.196 166.149 667.617 147.583 705.032C126.548 747.421 69.0046 737.707 34.5792 765.451C11.2243 784.273 -3.78147 813.509 -20.4328 840.437C-44.6435 879.591 -47.555 946.471 -86.6749 961.544C-123.064 975.565 -155.958 925.862 -190.274 905.877C-218.378 889.509 -248.856 878.068 -272.231 853.479C-294.496 830.057 -302.772 793.755 -322.215 767.083C-342.875 738.741 -373.87 722.355 -390.823 690.793C-409.177 656.625 -435.677 615.283 -424.222 577.18C-411.405 534.544 -357.851 530.817 -332.507 496.806C-314.07 472.064 -319.834 428.317 -297.986 407.772C-275.877 386.981 -242.383 397.948 -215.669 386.935C-189.819 376.279 -170.182 340.974 -142.899 343.84Z" fill="#403AD0"/>
<path fill-rule="evenodd" clip-rule="evenodd" d="M-152.899 353.795C-124.817 356.588 -113.187 408.19 -84.9961 408.591C-37.1789 409.273 5.31861 336.003 49.3883 356.677C84.4452 373.123 56.4739 440.749 68.8975 480.786C79.6806 515.536 106.341 541.233 117.406 575.873C129.752 614.519 156.149 660.367 137.583 695.794C116.548 735.93 59.0046 726.732 24.5792 753.002C1.22432 770.823 -13.7815 798.506 -30.4328 824.004C-54.6435 861.077 -57.555 924.403 -96.6749 938.674C-133.064 951.95 -165.958 904.888 -200.274 885.965C-228.378 870.467 -258.856 859.635 -282.231 836.352C-304.496 814.175 -312.772 779.802 -332.215 754.548C-352.875 727.711 -383.87 712.196 -400.823 682.311C-419.177 649.959 -445.677 610.814 -434.222 574.736C-421.405 534.366 -367.851 530.836 -342.507 498.633C-324.07 475.205 -329.834 433.783 -307.986 414.33C-285.877 394.644 -252.383 405.028 -225.669 394.6C-199.819 384.51 -180.182 351.082 -152.899 353.795Z" fill="#2F2AA4"/>
<path fill-rule="evenodd" clip-rule="evenodd" d="M809.899 -410.486C840.36 -397.332 836.278 -341.252 867.653 -330.458C920.87 -312.15 992.621 -370.027 1035.03 -333.033C1068.77 -303.605 1015.12 -246.037 1015.76 -201.272C1016.3 -162.419 1037.59 -126.799 1038.5 -87.9516C1039.5 -44.6112 1053.83 11.1365 1021.35 39.8525C984.557 72.3854 923.287 41.9432 876.116 55.6217C844.114 64.9014 818.179 87.156 791.129 106.611C751.798 134.898 727.582 197.387 679.136 197.293C634.07 197.205 612.885 137.844 580.795 106.203C554.514 80.288 524.037 58.1814 505.618 26.1966C488.074 -4.26982 490.203 -41.8208 476.832 -74.3358C462.623 -108.887 433.118 -135.885 424.062 -172.129C414.259 -211.367 397.598 -260.424 422.343 -292.415C450.031 -328.211 511.054 -312.015 550.039 -334.997C578.4 -351.716 585.67 -395.416 616.527 -406.889C647.754 -418.499 681.751 -395.732 715.061 -396.351C747.291 -396.951 780.304 -423.266 809.899 -410.486Z" fill="#2F2AA4"/>
<path fill-rule="evenodd" clip-rule="evenodd" d="M795.636 -353.687C822.024 -342.365 818.882 -295.011 846.043 -285.677C892.112 -269.845 953.663 -318.256 990.53 -286.71C1019.86 -261.616 973.935 -213.343 974.787 -175.517C975.526 -142.686 994.15 -112.445 995.193 -79.6174C996.358 -42.9922 1009.11 4.20672 981.263 28.2472C949.719 55.4832 896.615 29.3446 855.984 40.5796C828.418 48.2017 806.18 66.8276 782.959 83.0807C749.196 106.712 728.716 159.344 686.89 158.933C647.982 158.552 629.287 108.253 601.367 81.3004C578.5 59.2259 552.037 40.34 535.918 13.1904C520.563 -12.6704 522.145 -44.3827 510.379 -71.9458C497.877 -101.235 472.22 -124.247 464.154 -154.931C455.422 -188.15 440.704 -229.713 461.849 -256.573C485.509 -286.628 538.303 -272.527 571.804 -291.679C596.174 -305.611 602.152 -342.484 628.715 -351.967C655.595 -361.563 685.101 -342.095 713.854 -342.391C741.676 -342.678 769.998 -364.686 795.636 -353.687Z" fill="#403AD0"/>
<path fill-rule="evenodd" clip-rule="evenodd" d="M1463.9 517.714C1479.7 520.222 1486.25 566.558 1502.12 566.919C1529.03 567.53 1552.95 501.738 1577.75 520.302C1597.48 535.07 1581.74 595.795 1588.73 631.746C1594.8 662.95 1609.8 686.026 1616.03 717.131C1622.98 751.833 1637.84 793.003 1627.39 824.815C1615.55 860.856 1583.16 852.596 1563.79 876.185C1550.64 892.188 1542.2 917.046 1532.83 939.942C1519.2 973.232 1517.56 1030.1 1495.54 1042.91C1475.06 1054.83 1456.55 1012.57 1437.23 995.581C1421.42 981.665 1404.26 971.937 1391.11 951.031C1378.58 931.116 1373.92 900.251 1362.98 877.573C1351.35 853.475 1333.9 839.543 1324.36 812.708C1314.03 783.657 1299.12 748.507 1305.56 716.11C1312.78 679.859 1342.92 676.69 1357.18 647.772C1367.56 626.735 1364.32 589.54 1376.61 572.072C1389.06 554.395 1407.91 563.719 1422.94 554.355C1437.49 545.295 1448.54 515.277 1463.9 517.714Z" fill="#2F2AA4"/>
<path fill-rule="evenodd" clip-rule="evenodd" d="M1464.65 535.664C1479.35 537.996 1485.43 581.085 1500.18 581.421C1525.2 581.989 1547.44 520.807 1570.5 538.071C1588.84 551.804 1574.2 608.274 1580.7 641.706C1586.35 670.723 1600.3 692.181 1606.09 721.106C1612.54 753.377 1626.36 791.662 1616.64 821.245C1605.64 854.76 1575.53 847.079 1557.51 869.015C1545.29 883.897 1537.44 907.013 1528.73 928.304C1516.06 959.261 1514.54 1012.14 1494.07 1024.06C1475.03 1035.14 1457.82 995.845 1439.86 980.044C1425.16 967.103 1409.21 958.057 1396.98 938.616C1385.33 920.097 1381 891.394 1370.83 870.306C1360.02 847.897 1343.8 834.941 1334.93 809.986C1325.33 782.971 1311.46 750.284 1317.45 720.157C1324.16 686.446 1352.18 683.499 1365.44 656.608C1375.09 637.046 1372.07 602.457 1383.5 586.213C1395.07 569.774 1412.6 578.445 1426.58 569.738C1440.1 561.312 1450.38 533.398 1464.65 535.664Z" fill="#403AD0"/>
</g>
<defs>
<clipPath id="clip0_215_143">
<rect width="1440" height="1280" fill="white"/>
</clipPath>
</defs>
</svg>
